<?xml version="1.0" standalone="no"?><!DOCTYPE svg PUBLIC "-//W3C//DTD SVG 1.1//EN" "http://www.w3.org/Graphics/SVG/1.1/DTD/svg11.dtd"><svg t="1628763404759" class="icon" viewBox="0 0 1024 1024" version="1.1" xmlns="http://www.w3.org/2000/svg" p-id="5220" xmlns:xlink="http://www.w3.org/1999/xlink" width="200" height="200"><defs><style type="text/css"></style></defs><path d="M560.592 105c3.491 0 6.892 0.389 10.16 1.125a29.813 29.813 0 0 1 19.4 7.769l0.574 0.535 299.147 286.514a30.11 30.11 0 0 1 3.384 3.841c7.895 8.26 12.743 19.457 12.743 31.784v420.874C906 927.338 849.326 984 779.415 984h-494.83C214.674 984 158 927.338 158 857.442V231.558C158 161.662 214.674 105 284.585 105h276.007z m-13.81 59.827H284.586c-36.494 0-66.147 29.282-66.736 65.627l-0.009 1.104v625.884c0 36.486 29.288 66.133 65.64 66.722l1.105 0.009h494.83c36.494 0 66.147-29.282 66.736-65.627l0.009-1.104V450.373l-205.014 0.002c-51.594 0-93.517-41.399-94.35-92.783l-0.013-1.56V164.827z m147.833 583.316c16.524-0.05 29.96 13.302 30.01 29.823 0.049 16.285-12.927 29.57-29.124 29.993l-0.706 0.01-382.055 1.151c-16.525 0.05-29.96-13.302-30.01-29.823-0.05-16.285 12.926-29.57 29.123-29.993l0.706-0.01 382.056-1.151zM518.449 536.446c16.524 0 29.92 13.393 29.92 29.914 0 16.285-13.016 29.53-29.214 29.905l-0.706 0.009H312.203c-16.524 0-29.92-13.393-29.92-29.914 0-16.285 13.016-29.53 29.214-29.905l0.706-0.009H518.45z m274.067-145.899L606.622 212.504l0.001 143.528c0 19.062 15.456 34.515 34.523 34.515h151.37z" fill="#ffffff" p-id="5221"></path></svg>