<?xml version="1.0" standalone="no"?><!DOCTYPE svg PUBLIC "-//W3C//DTD SVG 1.1//EN" "http://www.w3.org/Graphics/SVG/1.1/DTD/svg11.dtd"><svg t="1628763561275" class="icon" viewBox="0 0 1024 1024" version="1.1" xmlns="http://www.w3.org/2000/svg" p-id="12165" xmlns:xlink="http://www.w3.org/1999/xlink" width="200" height="200"><defs><style type="text/css"></style></defs><path d="M613.632 384l116.224-232.405333c17.28-34.56 67.925333-30.208 79.018667 6.826666l128 426.666667a42.666667 42.666667 0 0 1-14.677334 45.909333l-384 298.666667a42.666667 42.666667 0 0 1-52.394666 0l-384-298.666667a42.666667 42.666667 0 0 1-14.677334-45.909333l128-426.666667c11.093333-37.034667 61.738667-41.386667 79.018667-6.826666L410.368 384h203.264z m144.426667-98.005333l-79.914667 159.744A42.666667 42.666667 0 0 1 640 469.333333H384a42.666667 42.666667 0 0 1-38.144-23.594666L265.941333 285.994667 177.28 581.546667 512 841.941333l334.72-260.352-88.661333-295.594666z" p-id="12166" fill="#ffffff"></path></svg>